<svg width="60" height="60" viewBox="0 0 60 60" fill="none" xmlns="http://www.w3.org/2000/svg">
<path d="M37.2132 9.07107C38.6117 10.4696 39.5641 12.2514 39.95 14.1912C40.3358 16.131 40.1378 18.1417 39.3809 19.969C38.6241 21.7962 37.3423 23.358 35.6978 24.4568C34.0533 25.5556 32.1199 26.1421 30.1421 26.1421C28.1643 26.1421 26.2309 25.5556 24.5864 24.4568C22.9419 23.358 21.6602 21.7962 20.9033 19.969C20.1465 18.1417 19.9484 16.131 20.3343 14.1912C20.7201 12.2514 21.6725 10.4696 23.0711 9.07107L30.1421 16.1421L37.2132 9.07107Z" fill="#86D20A"/>
<circle cx="30" cy="47" r="3" fill="#86D20A"/>
<circle cx="30" cy="30" r="28.5" stroke="#96EE06" stroke-width="3"/>
<rect x="28" y="24" width="4" height="17" rx="2" fill="#86D20A"/>
</svg>
